<?xml version="1.0" standalone="no"?>
<!DOCTYPE svg PUBLIC "-//W3C//DTD SVG 20010904//EN"
 "http://www.w3.org/TR/2001/REC-SVG-20010904/DTD/svg10.dtd">
<svg version="1.0" xmlns="http://www.w3.org/2000/svg"
 width="500.000000pt" height="500.000000pt" viewBox="0 0 500.000000 500.000000"
 preserveAspectRatio="xMidYMid meet">

<g transform="translate(0.000000,500.000000) scale(0.100000,-0.100000)"
fill="#000000" stroke="none">
<path d="M840 3918 c0 -595 2 -1079 4 -1077 3 3 6 255 7 562 2 454 5 557 16
557 10 0 13 23 13 97 0 53 3 93 6 90 4 -3 6 -47 5 -97 -2 -85 -1 -90 18 -90
18 0 21 6 21 40 l0 40 40 0 40 0 0 40 c0 23 5 40 11 40 8 0 10 17 7 50 -3 28
-1 50 3 50 5 0 9 9 9 20 0 17 7 20 40 20 34 0 40 3 40 20 0 32 47 100 69 100
15 0 14 -17 -1 -22 -9 -3 -9 -6 0 -12 7 -4 12 -2 12 3 0 6 7 11 15 11 20 0 19
20 -1 34 -9 7 -14 22 -12 36 l3 25 22 -24 c26 -28 58 -22 50 9 -4 14 0 20 11
21 10 0 2 7 -17 16 -19 8 -43 12 -53 10 -10 -3 -18 -2 -18 3 0 11 39 20 45 10
3 -4 21 -11 41 -15 34 -6 35 -7 19 -25 -16 -18 -15 -19 24 -17 23 1 41 5 41
10 0 4 -7 7 -15 7 -21 0 -19 18 5 32 11 7 20 19 20 26 0 9 -7 8 -24 -5 -13
-10 -22 -21 -19 -25 6 -12 -1 -10 -49 11 -48 20 -81 51 -55 51 8 0 21 7 28 16
12 15 11 16 -11 9 -14 -4 -31 -14 -37 -23 -7 -9 -13 -11 -13 -5 0 7 5 15 11
18 6 4 8 14 4 24 -5 13 -4 14 6 4 14 -14 33 -18 25 -5 -2 4 4 8 14 8 10 0 17
-3 15 -6 -2 -3 5 -11 16 -18 11 -7 19 -8 19 -2 0 5 -6 10 -12 10 -10 0 -10 2
-1 8 7 4 13 38 15 81 l3 74 35 1 35 1 -3 -91 c-2 -50 1 -106 6 -125 8 -27 10
-9 11 89 l1 122 81 0 c66 0 85 3 96 18 14 16 14 16 9 0 -6 -20 14 -24 31 -7 7
7 17 8 28 2 15 -9 15 -11 -1 -24 -16 -12 -17 -12 -11 4 6 17 -7 24 -17 8 -7
-11 32 -47 41 -38 3 4 1 7 -6 7 -8 0 -7 5 4 16 12 12 13 19 4 30 -9 11 -8 14
4 14 8 0 18 7 21 16 8 22 8 24 -9 24 -7 0 -18 6 -22 13 -4 6 -15 12 -23 12 -8
0 -16 7 -18 16 -2 14 10 18 69 24 44 5 79 14 88 23 12 11 13 16 3 20 -6 2 -12
10 -12 18 0 10 12 14 40 14 29 0 40 4 40 15 0 8 5 15 10 15 6 0 10 5 10 10 0
7 -177 10 -510 10 l-510 0 0 -1082z m695 892 c3 -5 -3 -10 -15 -10 -12 0 -18
5 -15 10 3 6 10 10 15 10 5 0 12 -4 15 -10z m-248 -122 c-3 -8 -6 -5 -6 6 -1
11 2 17 5 13 3 -3 4 -12 1 -19z m10 -75 c-3 -10 -5 -4 -5 12 0 17 2 24 5 18 2
-7 2 -21 0 -30z m-54 -150 c-7 -2 -19 -2 -25 0 -7 3 -2 5 12 5 14 0 19 -2 13
-5z"/>
<path d="M1920 4960 c0 -5 7 -10 15 -10 8 0 15 5 15 10 0 6 -7 10 -15 10 -8 0
-15 -4 -15 -10z"/>
<path d="M1717 4844 c-10 -11 3 -24 24 -24 10 0 19 7 19 15 0 15 -31 21 -43 9z"/>
<path d="M1735 4759 c-4 -6 -13 -8 -21 -5 -16 6 -17 -14 -3 -54 8 -24 8 -24 6
5 -2 26 2 31 28 36 17 4 24 7 17 8 -7 0 -10 6 -7 11 3 6 2 10 -4 10 -5 0 -13
-5 -16 -11z"/>
<path d="M1790 4749 c-12 -8 -10 -10 9 -5 14 3 32 0 40 -7 14 -11 14 -10 2 6
-15 20 -30 21 -51 6z"/>
<path d="M1978 4743 c7 -3 16 -2 19 1 4 3 -2 6 -13 5 -11 0 -14 -3 -6 -6z"/>
<path d="M1572 4705 c0 -16 2 -22 5 -12 2 9 2 23 0 30 -3 6 -5 -1 -5 -18z"/>
<path d="M1801 4714 c0 -11 3 -14 6 -6 3 7 2 16 -1 19 -3 4 -6 -2 -5 -13z"/>
<path d="M2032 4705 c0 -16 2 -22 5 -12 2 9 2 23 0 30 -3 6 -5 -1 -5 -18z"/>
<path d="M1880 4696 c14 -13 27 -22 29 -20 7 6 -31 44 -43 44 -6 0 1 -11 14
-24z"/>
<path d="M2295 4710 c-3 -5 -1 -10 4 -10 6 0 11 5 11 10 0 6 -2 10 -4 10 -3 0
-8 -4 -11 -10z"/>
<path d="M1943 4675 c0 -22 2 -30 4 -17 2 12 2 30 0 40 -3 9 -5 -1 -4 -23z"/>
<path d="M1691 4684 c0 -12 6 -27 14 -34 12 -10 15 -9 15 4 0 10 -4 15 -9 11
-5 -3 -12 5 -14 17 -4 22 -4 22 -6 2z"/>
<path d="M1794 4621 c0 -39 3 -68 8 -65 10 6 11 134 1 134 -5 0 -8 -31 -9 -69z"/>
<path d="M1470 4659 c0 -11 7 -19 16 -19 8 0 12 5 9 10 -3 6 -1 10 6 10 16 0
3 13 -16 16 -9 1 -15 -6 -15 -17z"/>
<path d="M1525 4670 c-3 -4 9 -10 25 -12 17 -3 30 -1 30 3 0 10 -50 18 -55 9z"/>
<path d="M1517 4643 c-3 -5 6 -8 19 -8 13 0 24 3 24 8 0 4 -9 7 -19 7 -11 0
-22 -3 -24 -7z"/>
<path d="M1563 4625 c-7 -8 -13 -20 -13 -27 0 -9 3 -9 10 2 6 10 10 -4 13 -45
l3 -60 2 73 c1 39 1 72 0 72 -2 -1 -9 -7 -15 -15z"/>
<path d="M1880 4590 c0 -5 5 -10 11 -10 5 0 7 5 4 10 -3 6 -8 10 -11 10 -2 0
-4 -4 -4 -10z"/>
<path d="M1470 4570 c0 -5 5 -10 10 -10 6 0 10 5 10 10 0 6 -4 10 -10 10 -5 0
-10 -4 -10 -10z"/>
<path d="M1669 4521 c-16 -16 -26 -32 -20 -35 5 -4 12 3 16 14 9 30 42 45 63
28 15 -12 16 -11 3 5 -18 23 -26 22 -62 -12z"/>
<path d="M1420 4491 c0 -5 32 -9 70 -9 39 0 70 4 70 9 0 5 -31 9 -70 9 -38 0
-70 -4 -70 -9z"/>
<path d="M1610 4489 c0 -5 5 -7 10 -4 6 3 10 8 10 11 0 2 -4 4 -10 4 -5 0 -10
-5 -10 -11z"/>
<path d="M1838 4493 c7 -3 16 -2 19 1 4 3 -2 6 -13 5 -11 0 -14 -3 -6 -6z"/>
<path d="M2636 4221 c-3 -5 -10 -42 -16 -82 -6 -41 -22 -123 -35 -184 -14 -60
-25 -113 -25 -117 0 -5 11 -8 25 -8 25 0 27 4 51 103 6 26 8 27 24 12 10 -9
28 -39 39 -66 18 -40 26 -49 46 -49 19 0 25 5 25 23 0 25 -50 116 -74 136 -22
19 -20 28 17 74 33 43 57 83 57 98 0 5 -19 22 -42 39 -40 29 -81 39 -92 21z
m61 -88 c-9 -21 -13 -23 -15 -9 -5 24 6 49 18 41 6 -3 5 -16 -3 -32z"/>
<path d="M2494 4203 c-10 -10 -27 -22 -38 -28 -28 -14 -39 -78 -31 -200 6
-104 21 -145 54 -145 32 0 49 33 70 139 21 101 27 204 15 235 -8 21 -48 20
-70 -1z m9 -192 l-18 -96 -3 89 c-2 71 1 93 15 115 15 23 18 24 21 7 2 -10 -4
-62 -15 -115z"/>
<path d="M2271 4175 c-30 -14 -33 -18 -28 -47 6 -31 20 -182 33 -350 5 -75 7
-78 31 -78 l25 0 -3 103 c-2 94 -1 105 23 142 39 63 47 79 58 129 21 96 -42
143 -139 101z m83 -50 c8 -21 -3 -73 -23 -110 l-16 -30 -3 64 c-2 35 -1 70 2
77 7 19 32 18 40 -1z"/>
<path d="M2952 3820 c-18 -4 -35 -9 -37 -11 -7 -7 -7 -145 0 -204 9 -79 17
-87 80 -73 54 11 81 29 70 48 -4 7 -22 9 -51 4 l-44 -6 0 40 c0 39 2 42 40 52
65 17 61 44 -7 42 -31 -1 -33 0 -33 33 0 32 3 35 29 35 31 0 49 16 35 30 -16
14 -48 18 -82 10z"/>
<path d="M3132 3813 c-18 -7 -52 -77 -52 -107 0 -14 14 -41 30 -59 38 -43 38
-70 0 -127 -35 -52 -37 -65 -13 -75 20 -7 51 25 84 87 26 51 24 79 -11 123
-33 42 -36 58 -15 95 25 44 14 75 -23 63z"/>
<path d="M2688 3762 c-41 -39 -41 -39 -21 -58 13 -12 28 -53 42 -114 30 -131
30 -130 52 -130 27 0 32 18 20 71 -5 24 -8 45 -6 47 2 3 30 -19 62 -47 57 -51
85 -62 99 -39 5 8 -22 40 -74 88 l-81 76 30 18 c17 10 35 29 42 43 10 23 8 28
-21 54 -48 43 -91 40 -144 -9z m107 -22 c6 -10 -29 -50 -45 -50 -11 0 -14 43
-3 53 10 10 41 8 48 -3z"/>
<path d="M2529 3758 c0 -12 0 -240 1 -341 0 -34 3 -38 23 -35 20 3 22 9 25 68
3 60 20 100 43 100 4 0 18 -22 30 -50 18 -39 28 -50 46 -50 30 0 30 26 -1 88
-13 26 -21 53 -18 61 2 8 -3 18 -12 23 -9 5 -32 40 -51 79 -29 57 -39 69 -60
69 -14 0 -25 -6 -26 -12z"/>
<path d="M2162 3688 c-23 -23 -7 -174 25 -235 16 -34 48 -52 64 -36 11 11 24
103 24 173 0 52 -1 55 -25 55 -23 0 -26 -5 -31 -50 -6 -49 -6 -49 -7 17 -2 54
-6 69 -20 77 -13 7 -23 6 -30 -1z"/>
<path d="M2348 3654 c-11 -26 -27 -82 -36 -125 -13 -68 -13 -83 -1 -115 24
-64 105 -72 131 -14 9 21 20 30 35 30 21 0 23 4 23 60 0 56 -2 61 -26 70 -57
22 -110 -3 -71 -33 14 -10 15 -19 6 -57 -12 -54 -26 -71 -40 -50 -16 23 -2
124 27 197 22 53 24 67 13 74 -27 17 -40 8 -61 -37z"/>
<path d="M2052 3647 c-8 -9 -8 -42 -1 -107 5 -52 12 -132 16 -178 3 -50 11
-86 20 -93 10 -9 33 -7 93 7 70 16 80 22 78 39 -3 22 -24 25 -89 12 -36 -7
-36 -7 -43 31 -3 21 -9 92 -12 158 -4 65 -11 125 -17 132 -12 16 -32 15 -45
-1z"/>
<path d="M3244 3368 c-51 -69 -52 -113 -6 -161 41 -42 55 -89 42 -137 -12 -44
-51 -99 -82 -114 -26 -13 -31 -39 -7 -44 25 -5 82 40 117 92 42 63 44 128 7
193 -14 23 -30 43 -35 43 -5 0 -12 11 -16 25 -6 26 19 76 55 109 24 22 17 46
-14 46 -16 0 -35 -15 -61 -52z"/>
<path d="M2634 3387 c-28 -25 -26 -47 4 -47 23 1 62 35 62 54 0 24 -35 20 -66
-7z"/>
<path d="M3116 3402 c-2 -4 -7 -85 -12 -180 l-7 -174 24 4 c24 3 24 6 38 167
14 157 13 164 -4 177 -21 16 -32 17 -39 6z"/>
<path d="M2846 3362 c-5 -8 -35 -220 -37 -260 0 -9 -15 35 -33 98 -30 105 -35
115 -58 118 -15 2 -28 -3 -31 -11 -6 -16 87 -323 104 -344 7 -8 22 -13 33 -11
19 3 23 19 49 196 22 151 26 197 16 208 -13 16 -35 19 -43 6z"/>
<path d="M2960 3361 c-22 -6 -25 -13 -28 -59 -4 -77 14 -292 27 -305 13 -13
79 5 113 32 31 26 16 37 -31 25 l-38 -11 -7 71 c-6 61 -4 72 10 81 45 27 69
54 58 65 -9 9 -17 9 -32 1 -33 -18 -42 -13 -42 23 0 28 5 36 30 46 41 17 39
40 -2 39 -18 -1 -44 -4 -58 -8z"/>
<path d="M2584 3307 c-2 -7 -2 -24 0 -37 2 -14 5 -76 5 -138 1 -95 4 -114 17
-119 32 -12 42 23 43 151 1 68 -1 130 -5 140 -7 19 -52 22 -60 3z"/>
<path d="M2406 3269 c-26 -20 -26 -22 -26 -155 0 -111 3 -136 15 -140 29 -11
45 16 45 73 l0 54 71 -85 c53 -65 76 -86 95 -86 14 0 24 6 24 14 0 7 -36 58
-79 112 l-80 99 23 25 c38 40 41 65 10 89 -34 27 -64 27 -98 0z m52 -55 c-7
-15 -14 -21 -16 -15 -5 16 5 41 17 41 7 0 6 -10 -1 -26z"/>
<path d="M2252 3257 c-29 -31 -62 -126 -62 -178 0 -87 55 -152 124 -147 33 2
41 7 41 23 0 16 -6 19 -27 17 -18 -2 -34 5 -52 25 -47 50 -30 180 31 230 16
13 24 27 20 37 -9 23 -50 19 -75 -7z"/>
<path d="M2101 3231 c-11 -7 -13 -30 -8 -113 l6 -103 -41 83 c-42 86 -59 103
-87 85 -18 -12 -18 -14 5 -188 20 -153 19 -148 44 -135 20 11 21 17 15 93 l-6
82 21 -50 c49 -116 61 -136 84 -133 21 3 21 5 17 188 -4 196 -9 217 -50 191z"/>
<path d="M1835 3190 c-3 -5 4 -88 15 -185 11 -97 20 -178 20 -180 0 -3 11 -5
25 -5 30 0 29 -13 9 198 -9 95 -21 170 -28 174 -15 11 -34 10 -41 -2z"/>
<path d="M1736 3135 c-9 -26 -7 -32 5 -12 6 10 9 21 6 23 -2 3 -7 -2 -11 -11z"/>
<path d="M1667 3063 c-4 -3 -7 -11 -7 -17 0 -6 5 -5 12 2 6 6 9 14 7 17 -3 3
-9 2 -12 -2z"/>
<path d="M4057 3043 c18 -2 50 -2 70 0 21 2 7 4 -32 4 -38 0 -55 -2 -38 -4z"/>
<path d="M1560 2944 c-13 -32 -13 -92 -1 -78 9 9 22 104 15 104 -3 0 -9 -12
-14 -26z"/>
<path d="M1400 2771 c-12 -24 -13 -34 -1 -27 9 6 22 46 15 46 -2 0 -8 -9 -14
-19z"/>
<path d="M1180 2695 c-7 -9 -8 -15 -2 -15 5 0 12 7 16 15 3 8 4 15 2 15 -2 0
-9 -7 -16 -15z"/>
<path d="M1020 2617 c-27 -14 -70 -72 -70 -94 0 -12 11 -14 53 -9 28 3 102 10
162 16 61 5 133 14 160 19 45 8 40 9 -60 11 -60 2 -117 2 -125 1 -37 -5 -88
-3 -98 3 -8 5 -8 15 -1 33 12 32 9 35 -21 20z"/>
<path d="M1428 2563 c17 -2 47 -2 65 0 17 2 3 4 -33 4 -36 0 -50 -2 -32 -4z"/>
<path d="M2161 2540 c46 -27 274 -39 369 -19 69 15 64 31 -7 22 -79 -9 -245
-10 -318 -1 -39 5 -54 4 -44 -2z"/>
<path d="M2790 2489 c0 -8 12 -37 26 -64 24 -45 25 -48 6 -31 -21 18 -22 18
-28 1 -5 -12 -1 -23 11 -31 29 -21 5 -37 -47 -32 -23 3 -51 8 -60 12 -10 5
-18 4 -18 -1 0 -16 48 -33 94 -33 27 0 60 -9 87 -24 68 -37 146 -59 190 -53
22 3 55 18 78 36 21 17 44 31 50 31 6 0 11 5 11 10 0 19 -27 10 -61 -20 -39
-34 -68 -45 -99 -35 -25 8 -21 29 6 33 51 8 66 15 93 42 15 17 36 30 45 30 9
0 16 5 16 10 0 21 -35 9 -68 -22 -31 -31 -38 -33 -100 -33 -61 0 -72 3 -116
35 -32 23 -59 54 -78 89 -33 63 -38 70 -38 50z"/>
<path d="M3373 2208 c-118 -111 -242 -235 -289 -289 -84 -96 -85 -97 -78 -126
4 -15 8 -47 8 -72 l1 -46 125 -11 c69 -7 126 -12 128 -13 1 0 2 -10 2 -21 0
-12 7 -20 16 -20 9 0 14 -6 12 -12 -3 -8 -18 -12 -40 -10 -25 2 -37 -1 -41
-12 -6 -16 3 -19 56 -19 10 0 17 -7 17 -19 0 -11 -4 -16 -10 -13 -5 3 -10 -3
-10 -14 0 -12 5 -21 10 -21 6 0 10 -5 10 -10 0 -7 -13 -8 -36 -4 -32 6 -36 4
-32 -12 2 -13 13 -20 36 -22 32 -3 46 -22 16 -22 -10 0 -14 -7 -12 -17 2 -10
10 -17 16 -16 7 2 12 -4 12 -12 0 -11 -11 -15 -40 -15 -29 0 -40 -4 -40 -15 0
-10 10 -15 34 -15 19 0 38 -4 41 -10 3 -5 -1 -10 -9 -10 -9 0 -16 -7 -16 -15
0 -8 -4 -15 -10 -15 -5 0 -10 7 -10 15 0 11 -12 15 -45 15 -25 0 -45 -4 -45
-10 0 -5 -4 -10 -10 -10 -5 0 -10 6 -10 13 0 8 -15 12 -42 11 -27 -1 -42 -5
-41 -13 2 -6 -2 -11 -7 -11 -6 0 -10 7 -10 14 0 11 -14 16 -47 18 -43 3 -48 6
-51 28 -2 22 -1 23 8 8 15 -24 30 -23 30 2 0 13 -7 20 -20 20 -11 0 -20 5 -20
10 0 6 20 10 45 10 35 0 45 4 45 16 0 14 -8 16 -45 12 l-45 -6 4 115 5 114
-26 10 c-29 11 -17 20 -203 -158 l-84 -82 -6 -65 -5 -66 75 -2 c41 -1 84 -2
95 -3 11 -1 30 -3 43 -4 12 0 22 -5 22 -9 0 -4 -16 -6 -35 -4 -28 3 -35 1 -35
-13 0 -14 7 -16 35 -13 24 3 35 0 35 -9 0 -7 -8 -12 -17 -11 -10 1 -37 0 -60
0 -36 -2 -43 -5 -43 -23 0 -19 4 -20 60 -16 33 3 62 1 65 -3 3 -5 -12 -10 -32
-12 -27 -2 -39 -8 -41 -20 -3 -15 4 -18 37 -18 23 0 41 -5 41 -10 0 -6 -6 -10
-12 -9 -7 1 -34 1 -60 0 -42 -1 -48 -4 -48 -22 0 -20 4 -21 60 -17 l60 4 0
-69 0 -69 -32 4 c-27 2 -32 0 -30 -15 4 -21 -14 -23 -22 -2 -3 10 -19 15 -46
15 -29 0 -40 -4 -40 -15 0 -8 -4 -15 -10 -15 -5 0 -10 7 -10 15 0 12 -9 15
-37 11 -21 -3 -41 -5 -45 -5 -5 -1 -8 -9 -9 -18 0 -15 -3 -14 -16 4 -8 13 -22
23 -29 23 -8 0 -14 3 -14 8 0 4 20 6 45 4 40 -4 45 -2 45 17 0 18 -6 21 -44
21 -26 0 -46 -5 -49 -12 -3 -7 -6 -3 -6 10 -1 16 5 22 19 22 11 0 20 7 20 15
0 8 -9 15 -19 15 -21 0 -31 19 -31 56 0 19 5 24 25 24 14 0 26 6 27 13 1 6 4
-18 7 -56 3 -37 9 -67 14 -67 4 0 41 0 82 0 l75 0 0 70 c0 38 -5 80 -11 94
-14 31 -60 51 -96 42 -16 -4 -47 -6 -71 -6 -37 1 -43 -2 -40 -17 4 -18 40 -20
46 -2 2 5 8 9 13 9 5 0 4 -11 -2 -24 -18 -38 -59 -29 -75 17 -13 36 -13 36 18
39 42 4 49 27 8 26 -17 -1 -33 -5 -36 -10 -3 -4 -10 -8 -15 -8 -6 0 -7 5 -4
10 3 6 0 10 -9 10 -25 0 -46 -12 -46 -25 0 -10 -10 -12 -35 -8 -23 4 -35 2
-35 -6 0 -6 13 -11 29 -11 l28 0 1 -106 c0 -75 -4 -102 -11 -95 -15 15 -47 14
-48 -1 -1 -7 -5 1 -9 17 l-8 30 -1 -32 c-1 -31 -3 -33 -37 -33 l-36 0 4 58 c4
60 17 71 61 50 14 -7 17 -4 16 19 0 15 -3 22 -6 16 -2 -7 -18 -13 -34 -13 -23
0 -29 4 -30 23 l0 22 -11 -22 c-12 -25 -68 -33 -68 -10 0 8 -4 7 -10 -3 -6
-10 -10 -11 -10 -2 0 6 -7 12 -15 12 -9 0 -15 -9 -15 -21 0 -16 5 -20 18 -17
13 4 18 0 17 -13 -1 -10 -5 -22 -10 -26 -4 -5 -5 -2 -1 5 4 7 1 12 -7 12 -8 0
-29 3 -46 6 -27 6 -31 4 -31 -15 0 -18 6 -21 44 -21 31 0 46 -5 50 -16 9 -24
7 -29 -6 -16 -17 17 -25 15 -31 -7 -5 -22 25 -31 104 -31 45 0 49 -2 49 -24 0
-13 7 -27 16 -30 24 -9 64 -7 64 3 0 5 3 16 6 25 4 12 0 16 -17 17 l-24 1 25
7 c39 12 48 3 46 -42 l-1 -41 -52 -3 c-32 -2 -53 1 -53 7 0 14 -57 12 -64 -2
-5 -10 -7 -10 -12 0 -8 16 -94 16 -94 0 0 -10 -2 -10 -8 0 -13 20 -82 28 -94
11 -7 -11 -11 -11 -15 -1 -6 16 -80 16 -86 0 -4 -10 -8 -10 -15 1 -7 10 -24
12 -61 9 -28 -3 -53 -2 -57 1 -7 7 -13 8 -54 10 -33 1 -41 18 -10 23 15 2 17
7 10 18 -9 13 -11 13 -20 0 -7 -10 -10 10 -10 69 l0 84 39 -7 c27 -4 41 -2 44
7 3 6 5 -4 5 -23 0 -19 -2 -27 -5 -17 -6 23 -19 22 -26 -3 -4 -15 0 -20 14
-20 15 0 19 -7 19 -35 l0 -35 85 0 85 0 0 33 c0 32 0 32 44 29 33 -3 45 0 49
12 8 21 -12 29 -58 24 -34 -4 -35 -3 -35 28 0 72 -87 119 -136 73 -13 -12 -24
-28 -24 -34 0 -9 -12 -10 -42 -4 -24 4 -47 8 -53 9 -5 0 -3 4 5 9 8 6 18 7 23
4 6 -3 8 8 5 27 -5 32 -4 32 29 27 28 -5 33 -3 33 14 0 15 -7 19 -32 20 -18 0
-42 4 -53 9 -13 5 27 9 108 9 134 1 164 10 151 45 -7 19 -74 22 -92 4 -9 -9
-12 -9 -12 0 0 16 -87 16 -93 0 -4 -10 -8 -10 -15 1 -6 8 -21 12 -41 9 -21 -3
-31 0 -31 9 0 7 5 13 10 13 6 0 10 9 10 20 0 11 -4 20 -10 20 -5 0 -10 5 -10
10 0 6 14 10 30 10 20 0 30 5 30 15 0 10 -10 15 -30 15 -28 0 -30 2 -30 40 0
37 2 40 29 40 16 0 31 6 35 15 3 8 2 15 -2 16 -4 0 -17 2 -29 3 -24 3 -44 16
-25 16 7 0 12 9 12 20 0 11 -4 20 -10 20 -5 0 -10 5 -10 10 0 6 16 10 35 10
31 0 35 3 35 25 0 29 -16 32 -48 9 -20 -14 -22 -14 -22 0 0 25 -34 19 -76 -14
-270 -206 -274 -210 -274 -304 0 -54 3 -56 128 -57 53 -1 89 -3 80 -6 -12 -3
-18 -14 -18 -34 0 -29 1 -30 43 -27 38 3 42 6 45 31 4 33 22 26 22 -9 0 -13 3
-23 8 -22 4 2 9 -1 12 -7 3 -6 -13 -11 -37 -13 -29 -2 -43 -8 -43 -18 0 -14
14 -18 63 -14 15 1 27 -3 27 -9 0 -6 -7 -11 -15 -11 -8 0 -15 -9 -15 -20 0
-11 7 -20 15 -20 8 0 15 -4 15 -10 0 -5 -20 -10 -45 -10 -44 0 -45 0 -45 34 0
18 -7 39 -15 46 -12 10 -13 15 -4 20 11 7 -12 11 -74 12 -16 1 -38 -9 -52 -22
-22 -20 -25 -32 -25 -89 l0 -66 -45 3 c-44 4 -65 22 -25 22 26 0 26 30 0 37
-34 9 -22 21 18 20 30 -2 38 2 40 18 2 18 -2 20 -36 17 -22 -2 -43 1 -46 7 -4
7 1 11 13 11 14 0 21 6 21 20 0 13 -7 20 -20 20 -11 0 -20 5 -20 10 0 6 23 10
50 10 41 0 50 3 50 18 0 9 -4 23 -9 30 -11 18 -80 12 -91 -8 -8 -13 -9 -12
-10 3 0 10 -6 17 -12 14 -12 -3 -14 -11 -17 -60 -1 -15 -8 -17 -51 -13 -44 4
-50 2 -50 -15 0 -15 8 -19 38 -20 20 -1 43 -1 50 0 10 2 12 -15 10 -66 -3 -61
-5 -68 -25 -71 -32 -5 -39 -32 -8 -32 23 0 25 -4 25 -50 0 -27 -4 -50 -10 -50
-5 0 -10 5 -10 10 0 6 -7 10 -15 10 -8 0 -15 -4 -15 -10 0 -5 -5 -10 -10 -10
-6 0 -9 5 -8 11 2 6 -16 12 -40 14 -31 2 -42 0 -42 -11 0 -8 -4 -14 -10 -14
-5 0 -10 7 -10 15 0 19 -86 22 -92 3 -3 -9 -9 -8 -22 5 -10 9 -31 17 -48 17
-23 0 -29 4 -24 16 3 9 6 19 7 22 0 4 4 -2 9 -13 8 -19 9 -19 9 3 1 12 -3 22
-9 22 -5 0 -10 4 -10 10 0 6 54 7 145 3 129 -5 145 -4 145 10 0 21 -20 33 -30
17 -6 -10 -9 -8 -13 6 -4 16 -5 15 -6 -4 -1 -20 -6 -23 -33 -20 -32 3 -33 4
-36 57 l-3 53 40 -4 c38 -3 41 -2 41 22 0 27 -30 62 -63 73 -9 4 -29 2 -44 -4
-14 -5 -29 -6 -32 -2 -11 15 -59 12 -65 -3 -8 -20 22 -30 46 -15 18 11 18 11
3 -18 -8 -17 -16 -58 -16 -93 -1 -35 -3 -55 -6 -45 -3 12 -15 17 -39 17 -19 0
-34 5 -34 11 0 5 4 8 9 5 10 -7 25 24 16 33 -3 3 -10 -1 -15 -9 -7 -11 -9 -3
-9 25 1 22 3 32 6 23 7 -27 63 -25 63 2 0 16 -7 20 -35 20 -19 0 -35 5 -35 10
0 6 7 10 15 10 8 0 15 9 15 20 0 11 -7 20 -15 20 -8 0 -15 5 -15 10 0 7 15 9
40 5 35 -5 40 -4 40 14 0 15 -9 20 -47 23 -52 5 -97 -11 -107 -37 -8 -21 -8
-358 0 -379 5 -14 32 -16 193 -17 102 0 179 -3 171 -6 -8 -3 -18 -11 -22 -17
-5 -8 -11 -7 -20 2 -24 24 -88 11 -88 -18 0 -17 10 -19 100 -19 94 0 100 2
100 21 0 14 -5 18 -16 14 -8 -3 -13 -2 -9 3 3 5 -1 12 -7 14 -7 3 -1 6 15 6
24 1 27 -3 27 -29 0 -29 2 -30 46 -30 46 0 46 0 42 30 -3 19 0 30 7 30 7 0 10
-11 7 -30 -4 -27 -2 -30 24 -30 26 0 29 -3 29 -35 0 -31 -3 -35 -25 -34 -17 1
-19 3 -7 6 10 3 17 14 17 28 0 24 -1 24 -100 23 l-100 -2 0 -28 c0 -15 -4 -28
-8 -28 -5 0 -7 13 -4 30 4 30 4 30 -42 30 -42 0 -46 -2 -46 -24 0 -20 6 -25
33 -29 17 -2 -4 -4 -48 -4 -56 0 -68 2 -40 6 32 5 41 11 43 29 3 22 1 23 -45
20 -47 -3 -48 -4 -46 -33 2 -22 0 -26 -7 -15 -5 8 -10 22 -10 31 0 14 -13 17
-80 17 l-80 0 0 -134 0 -134 30 0 c41 0 43 37 3 43 -16 2 9 5 55 7 45 1 92 3
105 4 14 1 23 8 25 23 3 17 -3 22 -25 26 -16 2 -6 5 24 6 30 0 53 6 56 14 4 9
6 9 6 0 1 -9 17 -13 46 -13 25 0 45 -3 45 -7 0 -5 -31 -7 -70 -5 -70 4 -70 4
-70 -23 0 -26 1 -26 68 -24 111 3 318 -2 305 -8 -15 -6 -17 -43 -3 -43 15 0
12 -16 -2 -18 -46 -3 -169 -4 -172 -1 -4 4 -91 4 -166 -1 -19 -1 -37 -1 -40 0
-14 6 -186 7 -195 2 -5 -4 -14 -7 -20 -7 -14 0 -17 -130 -7 -325 8 -147 9
-154 11 -64 l1 101 28 1 c180 1 215 3 203 11 -11 7 -11 9 0 13 8 3 4 7 -10 11
-17 4 -21 2 -17 -9 3 -8 1 -14 -4 -14 -6 0 -10 15 -9 33 0 17 3 26 6 20 2 -7
13 -13 24 -13 24 0 25 27 1 53 -16 19 -16 20 1 14 9 -4 17 -2 17 4 0 16 -31
23 -41 8 -7 -11 -9 -11 -9 4 0 12 8 17 30 17 l30 0 0 -69 c0 -55 3 -70 16 -75
12 -5 14 -3 7 6 -5 7 -7 39 -5 70 3 44 7 55 18 51 8 -3 21 0 29 7 13 11 15 5
15 -43 0 -30 3 -62 6 -70 4 -11 -2 -17 -18 -19 -13 -2 6 -5 42 -6 36 -1 82 -6
103 -11 30 -7 391 -8 562 -2 17 1 56 -2 87 -5 l57 -6 98 95 c98 94 98 94 146
92 41 -2 54 -8 88 -41 22 -21 52 -62 65 -91 24 -50 26 -51 81 -61 62 -10 91
-3 130 32 13 11 24 18 25 15 2 -2 8 -13 14 -24 8 -15 23 -21 59 -23 87 -6 108
8 203 132 42 54 45 56 92 56 27 0 61 -5 77 -11 40 -15 91 -67 114 -116 10 -23
26 -46 35 -51 24 -14 116 -2 145 19 24 17 28 17 48 2 26 -17 64 -18 393 -3
218 9 251 13 300 33 32 13 38 38 38 154 l0 85 -200 -7 -200 -8 0 23 c0 13 -8
24 -20 27 -32 8 -23 23 14 23 35 0 62 29 28 31 -70 4 -67 2 -70 42 l-3 37 40
0 c34 0 41 3 41 20 0 16 -7 20 -34 20 -19 0 -37 -6 -39 -12 -3 -7 -6 -3 -6 10
-1 16 5 22 19 22 11 0 20 7 20 15 0 8 -9 15 -20 15 -38 0 -20 19 22 22 59 4
63 28 5 28 -36 0 -46 4 -50 19 -6 25 7 28 134 30 56 1 110 6 118 11 13 8 13 9
-4 10 -15 0 -17 2 -7 9 14 8 13 43 0 42 -5 -1 -24 -1 -43 -1 -28 0 -35 -4 -35
-20 0 -11 -4 -20 -10 -20 -5 0 -10 9 -10 20 0 17 -7 20 -45 20 -40 0 -45 -3
-46 -22 l0 -23 -9 23 c-14 34 -37 26 -31 -11 1 -5 -4 -7 -11 -5 -8 3 -14 26
-15 66 -1 57 0 61 16 52 20 -10 31 -4 31 18 0 10 -7 12 -25 8 -24 -6 -25 -5
-25 44 0 47 2 51 20 45 15 -5 20 -2 20 10 0 13 -6 16 -23 13 -21 -4 -24 -1
-26 41 -2 49 -7 61 -22 61 -7 0 -10 -59 -8 -162 1 -125 -1 -163 -11 -166 -9
-3 -11 1 -7 12 4 9 2 16 -3 16 -6 0 -10 -8 -10 -18 0 -16 -8 -18 -72 -15 -46
2 -77 -2 -86 -10 -12 -9 -16 -9 -19 1 -5 14 -83 17 -83 2 0 -5 -7 -10 -15 -10
-8 0 -15 5 -15 10 0 6 -18 10 -40 10 -22 0 -40 -4 -40 -10 0 -5 -12 -10 -27
-9 -25 0 -26 1 -8 9 15 6 9 9 -25 8 -37 0 -41 -1 -20 -8 19 -6 11 -8 -32 -9
-40 -1 -58 3 -58 12 0 9 -3 8 -9 -2 -7 -11 -9 -11 -14 0 -4 12 -7 11 -16 -1
-10 -13 -12 -13 -22 0 -8 11 -12 12 -16 3 -2 -7 -15 -13 -28 -13 -21 0 -23 4
-22 45 l2 45 38 0 c33 0 37 3 37 25 0 14 -4 25 -9 25 -5 0 -7 -9 -4 -20 3 -11
0 -20 -6 -20 -6 0 -11 4 -11 10 0 5 -11 12 -25 16 -31 8 -38 34 -27 96 6 29 6
48 0 50 -5 2 -6 11 -3 21 6 15 31 22 58 18 4 0 7 6 7 14 0 10 -10 15 -30 15
-31 0 -43 19 -12 21 9 0 109 1 222 0 113 0 251 2 307 5 95 5 101 7 86 22 -12
13 -39 17 -122 18 -58 1 -111 2 -117 3 -7 0 -14 15 -16 32 -4 25 -1 33 14 37
24 6 25 44 1 40 -14 -2 -19 5 -21 35 -3 32 0 37 17 37 14 0 21 6 21 20 0 13
-7 20 -20 20 -16 0 -20 7 -20 35 0 31 3 35 25 35 18 0 25 5 25 20 0 15 -7 20
-25 20 -22 0 -25 4 -25 35 0 29 4 35 20 35 18 0 19 3 10 20 -6 11 -17 20 -24
20 -11 0 -12 10 -5 46 5 25 6 51 2 57 -3 5 -6 25 -7 44 -1 30 2 33 27 33 20 0
27 5 27 20 0 16 -7 20 -30 20 -27 0 -29 2 -20 24 6 17 5 26 -3 30 -7 2 29 5
80 5 78 1 91 -1 87 -14 -7 -18 -27 -19 -53 -3 -14 9 -27 8 -57 -4 l-39 -16 99
0 c92 -1 98 0 93 19 -4 16 0 19 32 19 20 0 46 6 57 14 11 8 40 16 64 18 l43 3
-35 35 c-19 19 -60 60 -91 90 -32 30 -67 65 -79 78 -16 15 -34 22 -61 22 -32
0 -47 -8 -94 -52z m-73 -568 c0 -5 -2 -10 -4 -10 -3 0 -8 5 -11 10 -3 6 -1 10
4 10 6 0 11 -4 11 -10z m-1580 -414 c0 -3 -4 -8 -10 -11 -5 -3 -10 -1 -10 4 0
6 5 11 10 11 6 0 10 -2 10 -4z m-644 -38 c4 -27 -12 -40 -47 -36 l-34 3 28 28
c29 30 49 32 53 5z m49 6 c35 -23 33 -54 -3 -54 -37 0 -39 4 -34 40 5 35 5 35
37 14z m1506 9 c8 -49 3 -58 -28 -61 -39 -4 -43 11 -11 45 22 23 37 29 39 16z
m57 -12 c32 -27 28 -51 -7 -51 -24 0 -29 5 -33 30 -7 45 5 52 40 21z m-1198
-21 c0 -17 -5 -30 -12 -30 -9 0 -9 -3 0 -12 7 -7 12 -36 12 -66 l0 -53 -32 3
c-32 3 -33 5 -36 54 -3 44 0 52 20 62 18 9 19 11 4 9 -27 -3 -30 15 -6 41 30
32 50 28 50 -8z m57 8 c32 -30 29 -38 -12 -38 -32 0 -35 2 -35 30 0 35 15 38
47 8z m323 -13 c0 -32 -2 -35 -30 -35 -37 0 -42 31 -8 54 32 23 38 20 38 -19z
m64 3 c23 -32 20 -38 -19 -38 -32 0 -35 2 -35 30 0 37 31 42 54 8z m-866 -85
l3 -53 -35 0 -36 0 0 48 c0 57 2 59 38 58 25 -1 27 -4 30 -53z m500 -10 c3
-50 2 -51 -28 -55 -16 -3 -32 -2 -35 0 -7 7 -6 97 0 104 3 3 18 4 33 3 25 -1
27 -4 30 -52z m1072 2 l0 -55 -35 0 -35 0 0 55 0 55 35 0 35 0 0 -55z m80 0
l0 -55 -35 0 -35 0 0 55 0 55 35 0 35 0 0 -55z m-850 -10 l0 -55 -35 0 -35 0
0 55 0 55 35 0 35 0 0 -55z m78 -2 c-3 -57 -3 -58 -33 -58 -30 0 -30 1 -33 58
l-3 57 36 0 36 0 -3 -57z m292 -13 c0 -33 -3 -60 -7 -60 -5 0 -18 3 -30 6 -20
6 -23 13 -23 60 0 53 0 54 30 54 l30 0 0 -60z m-602 10 c30 -1 34 -3 20 -11
-22 -12 -24 -39 -3 -39 8 0 15 -4 15 -10 0 -5 -18 -10 -40 -10 -33 0 -40 -3
-40 -20 0 -17 7 -20 43 -21 23 -1 34 -3 25 -6 -10 -2 -18 -8 -18 -11 0 -6 -45
-7 -272 -3 -27 1 -48 5 -48 10 0 5 9 7 21 4 17 -5 20 -2 17 18 -2 16 -9 24
-21 23 -9 -1 -17 2 -17 7 0 10 31 11 173 9 l87 -1 0 48 c1 37 3 44 11 31 7
-12 23 -18 47 -18z m679 -86 c-3 -3 -12 -4 -19 -1 -8 3 -5 6 6 6 11 1 17 -2
13 -5z m-970 -130 c-3 -3 -12 -4 -19 -1 -8 3 -5 6 6 6 11 1 17 -2 13 -5z m108
-4 c3 -5 2 -10 -4 -10 -5 0 -13 5 -16 10 -3 6 -2 10 4 10 5 0 13 -4 16 -10z
m525 -6 c96 -3 181 -7 188 -9 6 -3 12 -12 12 -22 -1 -17 -1 -17 -11 0 -8 14
-23 17 -82 15 -67 -2 -68 -2 -17 -5 30 -2 59 -8 64 -14 6 -6 6 -9 -2 -9 -7 0
-12 -7 -12 -15 0 -18 46 -21 53 -2 3 7 6 5 6 -6 1 -9 -5 -26 -11 -37 -11 -17
-10 -22 2 -30 11 -7 7 -10 -17 -10 -26 0 -33 -4 -33 -20 0 -15 7 -20 28 -20
25 0 27 -3 27 -40 0 -38 -1 -40 -32 -40 -27 0 -32 4 -36 28 -3 18 -4 13 -6
-16 l-1 -44 -67 8 c-38 3 -71 11 -74 16 -3 5 -9 3 -12 -5 -4 -11 8 -16 55 -21
94 -9 108 -8 109 12 0 16 1 16 8 -1 4 -10 10 -18 14 -18 4 1 17 1 28 1 18 0
19 -3 9 -15 -6 -8 -9 -23 -5 -35 6 -19 2 -20 -82 -21 -48 -1 -92 -1 -97 0 -14
3 -273 12 -388 14 -62 1 -102 7 -110 15 -9 9 -8 12 10 12 15 0 22 6 22 20 0
13 -7 20 -20 20 -11 0 -20 5 -20 10 0 7 34 8 101 4 86 -6 101 -5 93 7 -4 8 -9
24 -10 37 -2 38 -14 37 -14 -2 0 -35 -1 -36 -27 -30 -30 7 -45 23 -37 36 3 4
0 8 -5 8 -6 0 -11 -8 -12 -17 0 -11 -3 -13 -6 -5 -2 6 -21 12 -41 12 l-36 0
22 21 c23 21 20 44 -4 35 -8 -3 -14 0 -14 8 0 8 10 11 31 8 29 -4 48 8 49 31
0 12 -68 8 -73 -5 -3 -7 -5 3 -5 22 0 19 2 29 5 23 8 -21 33 -15 33 7 0 14 -6
20 -16 18 -10 -2 -19 2 -21 8 -2 7 13 10 42 8 34 -2 45 1 45 12 0 7 -3 14 -7
15 -37 5 -69 3 -75 -6 -4 -5 -7 3 -6 19 l3 29 155 -6 c85 -4 234 -9 330 -13z
m-1060 -104 c0 -25 -4 -30 -24 -30 -34 0 -40 16 -16 40 28 28 40 25 40 -10z
m52 13 c26 -23 23 -43 -7 -43 -21 0 -25 5 -25 30 0 34 6 37 32 13z m316 -10
c-2 -18 -10 -29 -22 -31 -30 -6 -38 12 -16 36 28 30 42 28 38 -5z m70 -17 c3
-11 -4 -16 -22 -16 -22 0 -26 4 -26 31 0 30 1 31 23 17 12 -9 23 -23 25 -32z
m-445 -35 c4 0 7 -23 7 -51 0 -49 -1 -50 -30 -50 -30 0 -30 1 -30 54 0 56 0
56 53 47z m78 0 c4 -1 7 -23 8 -51 1 -49 0 -50 -29 -50 -29 0 -30 1 -30 48 0
54 4 62 28 57 9 -2 20 -4 23 -4z m378 -52 c1 -48 0 -49 -29 -49 -29 0 -30 1
-30 48 0 57 3 61 34 55 21 -4 24 -11 25 -54z m-251 31 c4 -12 2 -13 -9 -3 -8
6 -30 13 -49 16 -28 4 -26 4 9 3 30 -1 46 -6 49 -16z m172 -30 c0 -49 -1 -50
-30 -50 -29 0 -30 1 -30 50 0 49 1 50 30 50 29 0 30 -1 30 -50z m142 20 c-2
-12 2 -27 10 -31 8 -6 1 -8 -22 -8 -19 1 -27 3 -17 6 15 4 18 12 15 34 -3 18
-1 28 6 26 6 -2 9 -14 8 -27z m-169 -320 c4 -17 2 -18 -14 -9 -28 15 -39 3
-39 -42 0 -37 2 -39 30 -39 34 0 40 -15 9 -23 -40 -11 -49 1 -49 67 0 60 0 61
29 63 21 1 30 -3 34 -17z m82 10 c3 -6 -1 -7 -9 -4 -13 5 -16 -2 -18 -32 l-1
-39 -4 38 c-3 29 -8 37 -19 33 -9 -3 -12 -1 -9 4 3 6 17 10 30 10 13 0 27 -4
30 -10z m83 -60 c2 -46 -1 -61 -8 -50 -5 8 -10 37 -10 64 0 40 -2 46 -14 37
-10 -9 -11 -22 -5 -57 9 -47 6 -64 -12 -64 -5 0 -9 32 -9 71 l0 70 28 -3 c26
-3 27 -5 30 -68z m75 63 c-7 -2 -13 -14 -14 -26 0 -15 -2 -17 -6 -7 -3 8 -12
21 -21 28 -13 10 -11 12 19 11 19 0 28 -3 22 -6z m171 -40 c-2 -53 -2 -53 -19
-53 -18 0 -20 16 -2 24 10 5 10 7 0 12 -18 8 -16 24 3 24 8 0 13 4 10 9 -4 5
-14 8 -24 7 -12 -2 -18 -14 -20 -44 -3 -41 -2 -42 28 -42 18 0 29 -4 25 -10
-3 -5 -19 -10 -36 -10 -29 0 -29 0 -29 59 0 58 1 60 28 63 37 5 38 4 36 -39z
m-84 25 c0 -5 -13 -8 -30 -8 -16 0 -30 3 -30 8 0 4 14 7 30 7 17 0 30 -3 30
-7z m-520 -58 c0 -7 -6 -6 -15 4 -8 8 -15 20 -15 26 0 7 6 6 15 -4 8 -8 15
-20 15 -26z m193 16 c4 -11 0 -11 -18 -2 -13 6 -21 14 -19 18 6 10 31 -1 37
-16z m24 2 c-3 -8 -6 -5 -6 6 -1 11 2 17 5 13 3 -3 4 -12 1 -19z m263 -23 c0
-19 5 -35 10 -35 6 0 10 16 10 35 0 19 5 35 10 35 6 0 10 -18 10 -40 0 -38 -2
-40 -30 -40 -28 0 -30 2 -30 40 0 22 5 40 10 40 6 0 10 -16 10 -35z m-54 -15
c8 0 14 -8 13 -17 0 -11 -3 -13 -6 -5 -2 6 -13 12 -23 12 -10 0 -21 -6 -23
-12 -3 -8 -6 -6 -6 5 -1 9 4 17 9 17 6 0 11 8 11 18 1 16 2 16 6 0 2 -10 11
-18 19 -18z m-256 10 c0 -5 -2 -10 -4 -10 -3 0 -8 5 -11 10 -3 6 -1 10 4 10 6
0 11 -4 11 -10z m92 -2 c11 9 14 6 16 -16 1 -20 -1 -23 -8 -12 -8 12 -10 12
-16 -4 -7 -17 -8 -17 -17 -1 -8 14 -11 15 -18 4 -6 -10 -9 -6 -9 14 0 24 2 26
19 15 15 -9 23 -9 33 0z"/>
<path d="M1596 1043 c-12 -12 -6 -33 9 -33 8 0 15 6 15 14 0 17 -14 28 -24 19z"/>
<path d="M1407 983 c-51 -6 -43 -27 11 -31 37 -3 42 -1 42 17 0 12 -3 20 -7
19 -5 -1 -25 -3 -46 -5z"/>
<path d="M1480 970 c0 -17 7 -20 45 -20 38 0 45 3 45 20 0 17 -7 20 -45 20
-38 0 -45 -3 -45 -20z"/>
<path d="M1758 823 c6 -2 18 -2 25 0 6 3 1 5 -13 5 -14 0 -19 -2 -12 -5z"/>
<path d="M1818 823 c7 -3 16 -2 19 1 4 3 -2 6 -13 5 -11 0 -14 -3 -6 -6z"/>
<path d="M1978 813 c7 -3 16 -2 19 1 4 3 -2 6 -13 5 -11 0 -14 -3 -6 -6z"/>
<path d="M1600 796 c0 -12 11 -16 46 -16 59 0 55 24 -4 28 -33 2 -42 0 -42
-12z"/>
<path d="M1710 795 c0 -11 11 -15 40 -15 43 0 54 14 18 24 -38 10 -58 7 -58
-9z"/>
<path d="M1819 799 c-7 -4 -9 -11 -5 -17 8 -14 78 -10 83 4 4 13 -61 24 -78
13z"/>
<path d="M1917 793 c-16 -16 -4 -23 38 -23 33 0 45 4 45 15 0 11 -11 15 -38
15 -21 0 -42 -3 -45 -7z"/>
<path d="M2020 786 c0 -7 14 -16 31 -20 46 -9 49 -8 49 14 0 17 -7 20 -40 20
-27 0 -40 -4 -40 -14z"/>
<path d="M1540 750 c0 -23 29 -27 48 -8 19 19 14 28 -18 28 -23 0 -30 -4 -30
-20z"/>
<path d="M1601 734 c-12 -15 -21 -39 -21 -55 0 -15 -3 -35 -7 -45 -4 -12 -3
-15 5 -10 7 4 12 19 12 33 0 23 3 25 35 21 19 -2 37 1 39 7 3 6 5 5 5 -2 1 -8
14 -13 31 -13 30 0 30 -1 30 -54 0 -44 -4 -55 -17 -59 -14 -4 -12 -5 5 -6 17
-1 22 4 22 23 0 21 6 24 51 30 40 6 50 10 47 24 -4 23 -75 25 -88 3 -7 -12 -9
-8 -10 17 0 25 -4 32 -19 32 -37 0 -51 12 -51 41 0 16 3 29 8 29 17 0 52 -32
53 -48 0 -12 2 -13 6 -4 3 7 -5 24 -18 38 -32 34 -90 33 -118 -2z m59 -14 c0
-28 -3 -30 -35 -30 -39 0 -42 6 -19 38 23 34 54 29 54 -8z"/>
<path d="M1750 740 c0 -17 7 -20 45 -20 38 0 45 3 45 20 0 17 -7 20 -45 20
-38 0 -45 -3 -45 -20z"/>
<path d="M1860 736 c0 -16 21 -26 56 -26 17 0 24 6 24 20 0 17 -7 20 -40 20
-28 0 -40 -4 -40 -14z"/>
<path d="M1963 738 c7 -21 -12 -48 -33 -48 -13 0 -20 -7 -20 -20 0 -11 7 -20
15 -20 8 0 15 -4 15 -9 0 -4 -11 -6 -25 -3 -14 2 -25 9 -24 16 5 39 -1 46 -41
46 -33 0 -40 -3 -40 -20 0 -15 7 -20 29 -20 17 0 33 -5 36 -10 4 -6 1 -9 -7
-8 -7 2 -14 -7 -16 -19 -3 -21 1 -23 37 -23 23 0 41 5 41 10 0 17 18 11 23 -7
3 -10 5 -1 6 20 l1 37 69 0 c58 0 70 -3 74 -17 3 -10 5 -1 6 20 1 30 5 37 22
37 15 0 20 5 17 22 -3 21 -9 23 -75 25 -40 1 -75 -2 -78 -7 -3 -6 -11 -10 -16
-10 -6 0 -7 5 -4 10 3 6 1 10 -5 10 -7 0 -10 -6 -7 -12z m57 -58 c-6 -4 -22
-5 -35 -2 -21 4 -23 7 -14 24 6 10 20 23 32 27 19 7 23 5 25 -17 2 -14 -2 -28
-8 -32z m64 28 c22 -32 20 -38 -14 -38 -27 0 -30 3 -30 30 0 36 22 40 44 8z"/>
<path d="M1754 683 c4 -26 36 -29 36 -4 0 14 -6 21 -19 21 -13 0 -18 -6 -17
-17z"/>
<path d="M1540 636 c0 -8 5 -18 10 -21 6 -3 10 3 10 14 0 12 -4 21 -10 21 -5
0 -10 -6 -10 -14z"/>
<path d="M2032 615 c0 -16 2 -22 5 -12 2 9 2 23 0 30 -3 6 -5 -1 -5 -18z"/>
<path d="M2120 610 c0 -11 7 -20 15 -20 8 0 15 9 15 20 0 11 -7 20 -15 20 -8
0 -15 -9 -15 -20z"/>
<path d="M1750 570 c0 -23 25 -27 33 -6 7 16 -1 26 -20 26 -7 0 -13 -9 -13
-20z"/>
<path d="M1805 581 c-15 -14 0 -29 33 -34 43 -5 53 -1 46 17 -5 13 -69 27 -79
17z"/>
<path d="M1910 560 c0 -11 5 -20 10 -20 6 0 10 9 10 20 0 11 -4 20 -10 20 -5
0 -10 -9 -10 -20z"/>
<path d="M2020 570 c0 -5 5 -10 10 -10 6 0 10 5 10 10 0 6 -4 10 -10 10 -5 0
-10 -4 -10 -10z"/>
<path d="M1540 520 c0 -16 7 -20 34 -20 36 0 56 24 30 34 -34 13 -64 6 -64
-14z"/>
<path d="M1640 512 c0 -16 7 -19 43 -18 30 1 42 5 42 16 0 10 -13 16 -42 18
-37 3 -43 0 -43 -16z"/>
<path d="M1747 524 c-15 -16 8 -34 44 -34 32 0 39 3 39 20 0 17 -7 20 -38 20
-21 0 -41 -3 -45 -6z"/>
<path d="M1853 513 c-7 -19 -3 -21 42 -25 30 -2 40 1 40 12 0 21 -75 33 -82
13z"/>
<path d="M1950 500 c0 -17 7 -20 45 -20 38 0 45 3 45 20 0 17 -7 20 -45 20
-38 0 -45 -3 -45 -20z"/>
<path d="M2057 500 c-5 -18 0 -20 38 -20 45 0 68 16 44 31 -8 5 -28 9 -45 9
-23 0 -33 -5 -37 -20z"/>
<path d="M1521 2126 c11 -12 153 -25 169 -16 10 6 -5 9 -46 10 -34 0 -77 3
-95 6 -19 4 -31 4 -28 0z"/>
<path d="M2049 2101 c-14 -17 -34 -33 -44 -35 -11 -2 -28 -8 -39 -12 -15 -6
-17 -4 -12 14 8 25 -29 51 -47 33 -6 -6 -19 -11 -29 -11 -20 0 -25 -19 -5 -21
6 -1 21 -2 32 -3 11 0 20 -5 19 -11 -1 -14 -30 -82 -54 -127 -22 -41 -24 -48
-12 -48 5 0 16 16 26 36 9 20 19 34 23 31 3 -3 -9 -36 -26 -73 -17 -37 -30
-68 -28 -70 2 -2 14 -5 28 -7 22 -4 24 -9 25 -55 1 -29 -2 -52 -7 -52 -5 0 -9
-11 -9 -25 0 -22 4 -25 40 -25 29 0 40 4 40 15 0 8 4 15 9 15 5 0 11 -7 15
-15 7 -18 49 -21 44 -2 -3 6 -14 16 -25 21 -19 9 -21 20 -25 175 -4 163 -1
189 29 192 14 1 65 68 61 80 -2 7 -15 -2 -29 -20z m-79 -357 c0 -62 -1 -65
-22 -62 -18 2 -24 11 -26 37 -5 47 5 79 26 84 9 3 18 5 20 6 1 0 2 -29 2 -65z"/>
<path d="M878 2113 c23 -2 59 -2 80 0 20 2 1 4 -43 4 -44 0 -61 -2 -37 -4z"/>
<path d="M1188 2113 c12 -2 32 -2 45 0 12 2 2 4 -23 4 -25 0 -35 -2 -22 -4z"/>
<path d="M3576 1975 c-4 -11 2 -15 24 -15 20 0 30 5 30 15 0 9 -9 15 -24 15
-13 0 -26 -7 -30 -15z"/>
<path d="M3650 1975 c0 -8 4 -15 10 -15 5 0 7 7 4 15 -4 8 -8 15 -10 15 -2 0
-4 -7 -4 -15z"/>
<path d="M3430 1921 c-50 -27 -73 -62 -77 -123 -3 -41 1 -60 16 -86 39 -61
111 -87 176 -62 17 6 23 14 19 22 -6 9 -9 9 -12 0 -6 -19 -69 -26 -105 -11
-108 43 -117 187 -15 249 64 39 137 16 168 -52 25 -55 25 -89 0 -141 l-21 -42
26 28 c20 23 25 38 25 80 0 118 -104 190 -200 138z"/>
<path d="M3602 1923 c5 -24 52 -24 56 0 3 13 -3 17 -28 17 -25 0 -31 -4 -28
-17z"/>
<path d="M3651 1864 c0 -11 3 -14 6 -6 3 7 2 16 -1 19 -3 4 -6 -2 -5 -13z"/>
<path d="M3517 1820 c-16 -17 -26 -30 -22 -30 12 0 54 32 59 46 9 22 -6 16
-37 -16z"/>
<path d="M3652 1810 c0 -14 2 -19 5 -12 2 6 2 18 0 25 -3 6 -5 1 -5 -13z"/>
<path d="M3621 1701 c-9 -16 -7 -18 14 -18 18 0 25 5 25 18 0 11 -7 19 -15 19
-8 0 -19 -8 -24 -19z"/>
<path d="M1780 1666 c0 -24 3 -26 44 -26 39 0 43 2 42 23 -1 19 -7 22 -43 25
-40 3 -43 1 -43 -22z"/>
<path d="M2960 1644 c0 -8 5 -12 10 -9 6 3 10 1 10 -4 0 -6 13 -11 28 -11 18
0 29 5 29 15 0 8 -4 12 -8 9 -4 -2 -10 0 -14 6 -10 16 -55 12 -55 -6z"/>
<path d="M3350 1645 c0 -8 3 -15 8 -16 71 -8 91 0 53 21 -29 15 -61 12 -61 -5z"/>
<path d="M3567 1646 c-16 -12 -14 -14 23 -18 33 -3 40 0 40 14 0 22 -36 24
-63 4z"/>
<path d="M3060 1635 c0 -11 11 -15 40 -15 29 0 40 4 40 15 0 11 -11 15 -40 15
-29 0 -40 -4 -40 -15z"/>
<path d="M3170 1632 c0 -14 9 -19 40 -20 34 -2 40 0 40 18 0 17 -6 20 -40 20
-32 0 -40 -4 -40 -18z"/>
<path d="M1720 1600 c0 -25 26 -26 54 -3 12 10 15 11 9 3 -7 -8 -13 -20 -13
-28 0 -9 8 -4 21 12 28 35 49 34 49 -4 0 -28 -2 -30 -40 -30 -31 0 -40 -4 -40
-17 0 -13 3 -14 12 -5 7 7 25 12 40 12 24 0 28 -4 29 -27 l1 -28 7 25 c6 21
13 25 45 25 36 0 37 1 32 30 -4 17 -7 35 -8 41 -1 6 -40 11 -100 12 -91 1 -98
0 -98 -18z m178 -6 c34 -23 28 -44 -12 -44 -32 0 -35 2 -34 30 1 34 13 37 46
14z"/>
<path d="M1940 1600 c0 -17 7 -20 48 -20 53 0 63 5 55 26 -3 9 -21 14 -54 14
-42 0 -49 -3 -49 -20z"/>
<path d="M3400 1589 c0 -16 7 -19 40 -19 32 0 40 4 40 19 0 15 -8 19 -40 19
-33 1 -40 -3 -40 -19z"/>
<path d="M3500 1590 c0 -17 6 -20 40 -20 32 0 40 4 40 18 0 14 -9 19 -40 20
-34 2 -40 0 -40 -18z"/>
<path d="M3602 1593 c2 -11 14 -19 31 -21 22 -3 27 1 27 17 0 17 -6 21 -31 21
-24 0 -30 -4 -27 -17z"/>
<path d="M3000 1585 c0 -8 8 -15 19 -15 10 0 24 7 31 15 11 13 8 15 -19 15
-21 0 -31 -5 -31 -15z"/>
<path d="M3118 1560 c4 -39 3 -40 -29 -41 l-34 -2 30 -4 c16 -3 33 -10 37 -16
6 -9 8 -9 8 1 0 14 52 16 66 2 6 -6 10 -4 11 8 1 14 -5 17 -39 14 l-40 -4 4
41 c2 24 -1 41 -7 41 -6 0 -9 -16 -7 -40z"/>
<path d="M3070 1580 c-9 -6 -10 -10 -3 -10 6 0 15 5 18 10 8 12 4 12 -15 0z"/>
<path d="M3173 1567 c12 -13 24 -22 26 -20 6 4 -30 43 -40 43 -5 0 2 -10 14
-23z"/>
<path d="M1947 1564 c-8 -8 3 -34 14 -34 5 0 9 9 9 20 0 19 -11 26 -23 14z"/>
<path d="M1990 1549 c0 -15 7 -19 31 -19 23 0 30 4 27 17 -2 11 -14 18 -31 20
-21 1 -27 -3 -27 -18z"/>
<path d="M3350 1532 c0 -14 8 -18 40 -19 33 -1 40 3 40 18 0 15 -7 19 -40 19
-32 0 -40 -4 -40 -18z"/>
<path d="M3450 1530 c0 -17 7 -20 39 -20 24 0 41 5 44 14 8 20 -2 26 -45 26
-31 0 -38 -3 -38 -20z"/>
<path d="M3550 1532 c0 -25 82 -24 86 1 2 14 -6 17 -42 17 -35 0 -44 -3 -44
-18z"/>
<path d="M3651 1534 c0 -11 3 -14 6 -6 3 7 2 16 -1 19 -3 4 -6 -2 -5 -13z"/>
<path d="M2947 1533 c-16 -16 -4 -23 38 -23 33 0 45 4 45 15 0 11 -11 15 -38
15 -21 0 -42 -3 -45 -7z"/>
<path d="M3041 1524 c0 -11 3 -14 6 -6 3 7 2 16 -1 19 -3 4 -6 -2 -5 -13z"/>
<path d="M3220 1515 c0 -8 7 -15 15 -15 8 0 15 7 15 15 0 8 -7 15 -15 15 -8 0
-15 -7 -15 -15z"/>
<path d="M1725 1500 c-7 -12 2 -30 16 -30 5 0 9 9 9 20 0 21 -15 27 -25 10z"/>
<path d="M1950 1489 c0 -18 5 -20 42 -17 31 2 44 8 46 21 3 14 -4 17 -42 17
-40 0 -46 -3 -46 -21z"/>
<path d="M3387 1493 c-12 -11 -8 -25 5 -17 21 14 48 11 48 -4 0 -7 -6 -12 -12
-9 -30 10 -48 -13 -48 -62 0 -48 1 -49 33 -53 48 -5 67 1 67 23 0 11 -4 17
-10 14 -5 -3 -10 -1 -10 4 0 6 13 11 29 11 16 0 32 6 34 13 3 6 6 2 6 -10 1
-14 -5 -23 -14 -23 -8 0 -15 -7 -15 -15 0 -21 27 -19 39 2 5 10 13 14 17 10 5
-5 2 -12 -6 -17 -23 -14 -7 -20 26 -11 17 6 21 10 11 10 -14 1 -17 6 -12 22 5
16 3 20 -12 17 -15 -2 -18 4 -18 40 -1 24 3 46 8 49 5 3 7 -10 6 -28 -2 -19 1
-36 5 -39 5 -3 10 14 11 38 2 33 -1 42 -14 42 -10 0 -22 -5 -29 -12 -9 -9 -12
-9 -12 0 0 7 -4 12 -10 12 -5 0 -10 -9 -10 -21 0 -15 5 -19 15 -15 10 3 15 -1
15 -12 0 -15 -7 -17 -42 -14 -36 4 -40 6 -25 17 9 7 17 21 17 31 -1 18 -1 18
-15 0 -13 -17 -15 -18 -15 -3 0 12 -8 17 -28 17 -16 0 -32 -3 -35 -7z m53 -53
c0 -5 -7 -10 -15 -10 -8 0 -15 -5 -15 -11 0 -6 7 -9 15 -5 8 3 15 0 15 -7 0
-7 -11 -13 -24 -13 -21 -2 -24 3 -24 27 1 24 5 29 25 29 12 0 23 -4 23 -10z
m-30 -70 c0 -5 -4 -10 -10 -10 -5 0 -10 5 -10 10 0 6 5 10 10 10 6 0 10 -4 10
-10z m35 0 c3 -5 -1 -10 -9 -10 -9 0 -16 5 -16 10 0 6 4 10 9 10 6 0 13 -4 16
-10z"/>
<path d="M3617 1494 c-11 -11 5 -34 24 -34 12 0 19 7 19 20 0 19 -28 28 -43
14z"/>
<path d="M2957 1483 c-12 -11 -8 -23 8 -23 8 0 15 7 15 15 0 16 -12 20 -23 8z"/>
<path d="M3000 1475 c0 -8 7 -15 15 -15 9 0 12 6 9 15 -4 8 -10 15 -15 15 -5
0 -9 -7 -9 -15z"/>
<path d="M1841 1453 c-1 -29 -4 -33 -29 -33 -15 0 -34 6 -41 13 -11 10 -13 9
-9 -3 4 -11 24 -16 86 -18 45 -2 82 1 82 5 0 4 -17 8 -37 8 -34 0 -38 3 -44
30 l-7 30 -1 -32z"/>
<path d="M1950 1435 c0 -8 5 -15 10 -15 6 0 10 7 10 15 0 8 -4 15 -10 15 -5 0
-10 -7 -10 -15z"/>
<path d="M1990 1435 c0 -9 9 -15 25 -15 16 0 25 6 25 15 0 9 -9 15 -25 15 -16
0 -25 -6 -25 -15z"/>
<path d="M3350 1420 c0 -11 5 -20 10 -20 6 0 10 9 10 20 0 11 -4 20 -10 20 -5
0 -10 -9 -10 -20z"/>
<path d="M3614 1424 c3 -9 6 -18 6 -20 0 -3 5 -2 10 1 16 10 12 35 -6 35 -11
0 -14 -5 -10 -16z"/>
<path d="M3192 1405 c0 -16 2 -22 5 -12 2 9 2 23 0 30 -3 6 -5 -1 -5 -18z"/>
<path d="M3217 1414 c-8 -8 1 -24 14 -24 5 0 9 7 9 15 0 15 -12 20 -23 9z"/>
<path d="M1727 1393 c-20 -19 -5 -33 38 -33 38 0 45 3 45 20 0 17 -7 20 -38
20 -21 0 -42 -3 -45 -7z"/>
<path d="M1830 1380 c0 -17 7 -20 45 -20 38 0 45 3 45 20 0 17 -7 20 -45 20
-38 0 -45 -3 -45 -20z"/>
<path d="M1940 1380 c0 -18 7 -20 55 -20 48 0 55 2 55 20 0 18 -7 20 -55 20
-48 0 -55 -2 -55 -20z"/>
<path d="M3048 1393 c6 -2 18 -2 25 0 6 3 1 5 -13 5 -14 0 -19 -2 -12 -5z"/>
<path d="M3113 1393 c15 -2 37 -2 50 0 12 2 0 4 -28 4 -27 0 -38 -2 -22 -4z"/>
<path d="M3601 1373 c18 -29 59 -31 59 -3 0 13 -7 20 -20 20 -11 0 -20 -5 -20
-11 0 -8 -6 -7 -17 2 -15 13 -15 12 -2 -8z"/>
<path d="M2994 1371 c-2 -2 -4 -10 -4 -18 0 -9 14 -13 45 -13 60 0 63 26 4 32
-22 2 -42 2 -45 -1z"/>
<path d="M3102 1353 c4 -24 83 -27 83 -3 0 11 -13 16 -43 18 -38 3 -43 1 -40
-15z"/>
<path d="M1990 1330 c0 -13 30 -13 50 0 11 7 7 10 -17 10 -18 0 -33 -4 -33
-10z"/>
<path d="M3350 1312 c0 -14 9 -19 40 -20 34 -2 40 0 40 18 0 17 -6 20 -40 20
-32 0 -40 -4 -40 -18z"/>
<path d="M3450 1310 c0 -17 7 -20 45 -20 38 0 45 3 45 20 0 17 -7 20 -45 20
-38 0 -45 -3 -45 -20z"/>
<path d="M3550 1310 c0 -15 7 -20 29 -20 25 0 61 21 61 36 0 2 -20 4 -45 4
-38 0 -45 -3 -45 -20z"/>
<path d="M1420 1260 c0 -29 2 -30 45 -30 43 0 45 1 45 30 0 29 -2 30 -45 30
-43 0 -45 -1 -45 -30z"/>
<path d="M1017 1273 c-20 -19 -5 -33 38 -33 38 0 45 3 45 20 0 17 -7 20 -38
20 -21 0 -42 -3 -45 -7z"/>
<path d="M3605 1270 c4 -6 11 -8 16 -5 14 9 11 15 -7 15 -8 0 -12 -5 -9 -10z"/>
<path d="M1120 1256 c0 -8 14 -15 34 -18 42 -5 56 0 56 18 0 10 -13 14 -45 14
-32 0 -45 -4 -45 -14z"/>
<path d="M2602 1262 c-57 -4 -51 -27 7 -26 23 1 45 4 48 8 13 13 -13 21 -55
18z"/>
<path d="M2670 1255 c0 -11 12 -15 45 -15 33 0 45 4 45 15 0 11 -12 15 -45 15
-33 0 -45 -4 -45 -15z"/>
<path d="M1230 1244 c0 -9 5 -14 12 -12 18 6 21 28 4 28 -9 0 -16 -7 -16 -16z"/>
<path d="M1812 1243 c4 -24 93 -27 93 -3 0 11 -13 16 -48 18 -42 3 -48 1 -45
-15z"/>
<path d="M1920 1240 c0 -17 7 -20 45 -20 37 0 45 3 45 18 0 15 -9 19 -45 20
-39 2 -45 -1 -45 -18z"/>
<path d="M2029 1253 c-11 -24 33 -46 69 -35 27 9 10 30 -28 34 -22 2 -41 2
-41 1z"/>
<path d="M2130 1230 c0 -17 6 -20 45 -18 36 1 45 5 45 20 0 15 -8 18 -45 18
-38 0 -45 -3 -45 -20z"/>
<path d="M2237 1244 c-20 -21 -5 -34 39 -34 38 0 45 3 42 18 -2 11 -14 18 -38
20 -20 2 -39 0 -43 -4z"/>
<path d="M3885 1220 c-19 -8 -12 -12 20 -12 40 0 55 3 55 12 0 12 -47 12 -75
0z"/>
<path d="M3980 1222 c0 -10 46 -10 56 1 4 4 -7 7 -24 7 -18 0 -32 -4 -32 -8z"/>
<path d="M3178 1212 c-16 -2 -28 -10 -28 -18 0 -19 76 -20 83 0 6 16 -15 23
-55 18z"/>
<path d="M3263 1213 c-7 -3 -13 -11 -13 -18 0 -10 11 -12 43 -8 23 3 44 7 46
9 15 13 -48 27 -76 17z"/>
<path d="M3360 1205 c0 -11 11 -15 40 -15 29 0 40 4 40 15 0 11 -11 15 -40 15
-29 0 -40 -4 -40 -15z"/>
<path d="M3463 1205 c0 -13 9 -15 41 -13 23 2 41 8 41 13 0 6 -18 11 -41 13
-32 2 -41 0 -41 -13z"/>
<path d="M3570 1205 c0 -10 11 -15 35 -15 24 0 35 5 35 15 0 10 -11 15 -35 15
-24 0 -35 -5 -35 -15z"/>
<path d="M3770 1212 c0 -5 18 -8 40 -8 22 0 40 4 40 8 0 4 -18 8 -40 8 -22 0
-40 -4 -40 -8z"/>
<path d="M1370 1190 c0 -12 7 -20 18 -20 9 0 23 9 30 20 11 18 10 20 -18 20
-23 0 -30 -4 -30 -20z"/>
<path d="M1760 1190 c0 -11 6 -20 13 -20 8 0 22 9 32 20 18 20 17 20 -13 20
-25 0 -32 -4 -32 -20z"/>
<path d="M3040 1195 c0 -11 12 -15 45 -15 33 0 45 4 45 15 0 11 -12 15 -45 15
-33 0 -45 -4 -45 -15z"/>
<path d="M1970 1185 c0 -8 1 -15 3 -15 77 -12 77 -12 77 9 0 18 -6 21 -40 21
-29 0 -40 -4 -40 -15z"/>
<path d="M2070 1180 c0 -17 7 -20 45 -20 38 0 45 3 45 20 0 17 -7 20 -45 20
-38 0 -45 -3 -45 -20z"/>
<path d="M2180 1188 c0 -5 5 -6 10 -3 6 3 10 1 10 -4 0 -6 -4 -11 -10 -11 -5
0 -10 -5 -10 -12 0 -6 8 -4 19 6 19 17 74 18 101 1 8 -5 27 -10 42 -12 22 -2
28 1 28 17 0 17 -7 20 -57 20 -32 -1 -75 1 -95 4 -21 2 -38 0 -38 -6z m140
-18 c0 -5 -2 -10 -4 -10 -3 0 -8 5 -11 10 -3 6 -1 10 4 10 6 0 11 -4 11 -10z"/>
<path d="M3837 1183 c-4 -3 -7 -36 -6 -72 1 -44 3 -58 8 -41 6 21 13 25 44 25
32 0 37 3 37 23 0 23 -32 62 -51 62 -7 0 0 -9 15 -21 38 -30 34 -49 -10 -49
l-37 0 6 40 c5 42 5 44 -6 33z"/>
<path d="M3963 1183 c-20 -3 -33 -10 -33 -19 0 -20 106 -20 113 0 6 14 -14 27
-36 24 -7 0 -27 -3 -44 -5z"/>
<path d="M3717 1173 c-14 -13 -7 -33 11 -33 19 0 42 18 42 32 0 10 -44 11 -53
1z"/>
<path d="M3781 1160 c-13 -10 -21 -23 -19 -27 1 -4 15 4 30 20 31 31 22 37
-11 7z"/>
<path d="M2740 1151 c0 -12 6 -21 16 -21 9 0 14 7 12 17 -5 25 -28 28 -28 4z"/>
<path d="M2993 1148 c-1 -12 5 -18 18 -18 10 0 19 -4 19 -10 0 -5 -13 -10 -30
-10 -32 0 -42 -23 -14 -34 20 -8 36 2 28 16 -4 7 -2 8 4 4 6 -4 10 -12 8 -19
-1 -7 -1 -9 1 -4 3 4 20 7 38 7 33 0 34 -2 38 -42 l4 -43 1 43 c2 41 3 42 36
42 32 0 35 -3 39 -32 3 -30 4 -30 5 7 l2 41 -41 -4 -41 -4 4 41 c4 48 -12 54
-56 20 -25 -20 -37 -14 -15 8 7 7 2 10 -18 9 -20 -1 -30 -7 -30 -18z m107 -28
c0 -27 -3 -30 -29 -30 -39 0 -47 14 -21 40 30 30 50 26 50 -10z"/>
<path d="M3200 1149 c0 -15 8 -19 40 -19 33 0 40 3 40 19 0 16 -7 20 -40 19
-32 0 -40 -4 -40 -19z"/>
<path d="M3307 1164 c-4 -4 -7 -14 -7 -21 0 -10 11 -13 43 -11 29 2 42 8 42
18 0 16 -64 27 -78 14z"/>
<path d="M3459 1161 c12 -8 51 -4 51 5 0 2 -15 4 -32 4 -23 0 -29 -3 -19 -9z"/>
<path d="M3550 1155 c7 -8 20 -15 30 -15 9 0 17 7 17 15 0 10 -10 15 -30 15
-25 0 -28 -2 -17 -15z"/>
<path d="M3617 1164 c-9 -10 2 -24 18 -24 9 0 12 6 9 15 -6 16 -17 19 -27 9z"/>
<path d="M1180 1140 c0 -11 5 -20 10 -20 6 0 10 9 10 20 0 11 -4 20 -10 20 -5
0 -10 -9 -10 -20z"/>
<path d="M1226 1153 c-12 -12 -6 -33 9 -33 8 0 15 6 15 14 0 17 -14 28 -24 19z"/>
<path d="M1590 1140 c0 -11 7 -20 15 -20 8 0 15 9 15 20 0 11 -7 20 -15 20 -8
0 -15 -9 -15 -20z"/>
<path d="M3153 1137 c12 -13 24 -22 26 -20 6 4 -30 43 -40 43 -5 0 2 -10 14
-23z"/>
<path d="M3419 1143 c-13 -16 -12 -17 4 -4 9 7 17 15 17 17 0 8 -8 3 -21 -13z"/>
<path d="M3520 1156 c0 -2 8 -10 18 -17 15 -13 16 -12 3 4 -13 16 -21 21 -21
13z"/>
<path d="M1970 1130 c0 -15 5 -20 18 -18 9 2 17 10 17 18 0 8 -8 16 -17 18
-13 2 -18 -3 -18 -18z"/>
<path d="M2031 1141 c-27 -17 -4 -41 39 -41 33 0 40 3 40 20 0 13 -7 20 -19
20 -11 0 -25 2 -33 5 -7 3 -19 1 -27 -4z"/>
<path d="M2353 1133 c-19 -7 -16 -30 5 -35 12 -4 18 1 19 13 2 21 -6 28 -24
22z"/>
<path d="M3940 1110 c0 -11 5 -20 10 -20 6 0 10 9 10 20 0 11 -4 20 -10 20 -5
0 -10 -9 -10 -20z"/>
<path d="M3980 1110 c0 -23 9 -25 44 -9 32 15 24 29 -15 29 -22 0 -29 -5 -29
-20z"/>
<path d="M3400 1040 l0 -80 80 0 c44 0 80 3 80 8 0 4 -34 6 -75 4 l-75 -3 0
60 c0 50 3 59 15 55 21 -8 19 -2 -5 19 -20 17 -20 16 -20 -63z"/>
<path d="M3547 1105 c-4 -8 -2 -17 4 -20 5 -4 6 -11 3 -17 -4 -6 -2 -8 3 -5 6
4 8 18 5 32 -5 29 -8 31 -15 10z"/>
<path d="M3577 1114 c-14 -15 8 -34 39 -34 l34 0 -20 20 c-20 20 -41 26 -53
14z"/>
<path d="M952 1093 c5 -25 28 -28 28 -4 0 12 -6 21 -16 21 -9 0 -14 -7 -12
-17z"/>
<path d="M1151 1094 c0 -11 3 -14 6 -6 3 7 2 16 -1 19 -3 4 -6 -2 -5 -13z"/>
<path d="M3202 1093 c2 -10 10 -18 17 -18 8 0 15 8 17 18 1 11 -4 17 -18 17
-13 0 -18 -6 -16 -17z"/>
<path d="M3253 1095 c0 -15 5 -17 32 -17 43 0 55 3 55 17 0 11 -11 15 -43 15
-32 0 -44 -4 -44 -15z"/>
<path d="M3360 1095 c0 -8 7 -15 15 -15 8 0 15 7 15 15 0 8 -7 15 -15 15 -8 0
-15 -7 -15 -15z"/>
<path d="M3753 1088 c-2 -18 0 -20 7 -8 12 18 13 30 2 30 -4 0 -9 -10 -9 -22z"/>
<path d="M1173 1086 c0 -9 14 -16 39 -18 31 -3 38 0 38 14 0 14 -8 18 -38 18
-27 0 -39 -4 -39 -14z"/>
<path d="M1370 1080 c0 -11 7 -20 15 -20 8 0 15 9 15 20 0 11 -7 20 -15 20 -8
0 -15 -9 -15 -20z"/>
<path d="M1717 1094 c7 -3 9 -12 6 -20 -3 -8 -1 -14 4 -14 5 0 9 9 10 20 1 13
-4 20 -15 19 -10 0 -12 -3 -5 -5z"/>
<path d="M2520 1080 c0 -13 5 -20 13 -17 6 2 12 10 12 17 0 7 -6 15 -12 18 -8
2 -13 -5 -13 -18z"/>
<path d="M3465 1090 c-8 -13 15 -13 35 0 12 8 11 10 -7 10 -12 0 -25 -4 -28
-10z"/>
<path d="M3788 1093 c7 -3 16 -2 19 1 4 3 -2 6 -13 5 -11 0 -14 -3 -6 -6z"/>
<path d="M2343 1060 c-1 -11 4 -20 12 -20 8 0 13 9 12 20 -1 11 -6 20 -12 20
-6 0 -11 -9 -12 -20z"/>
<path d="M3717 1064 c-9 -10 4 -34 19 -34 16 0 16 2 8 24 -6 17 -16 20 -27 10z"/>
<path d="M3921 1054 c0 -11 3 -14 6 -6 3 7 2 16 -1 19 -3 4 -6 -2 -5 -13z"/>
<path d="M3940 1056 c0 -8 15 -16 36 -19 42 -7 64 0 64 19 0 10 -14 14 -50 14
-36 0 -50 -4 -50 -14z"/>
<path d="M2797 1053 c-17 -16 -5 -33 23 -33 23 0 30 4 30 20 0 14 -7 20 -23
20 -13 0 -27 -3 -30 -7z"/>
<path d="M3228 1052 c-49 -6 -34 -32 17 -32 32 0 45 4 45 14 0 16 -24 23 -62
18z"/>
<path d="M3300 1040 c0 -17 7 -20 45 -20 38 0 45 3 45 20 0 17 -7 20 -45 20
-38 0 -45 -3 -45 -20z"/>
<path d="M3580 1040 c0 -11 5 -20 10 -20 6 0 10 9 10 20 0 11 -4 20 -10 20 -5
0 -10 -9 -10 -20z"/>
<path d="M3620 1041 c0 -12 6 -21 16 -21 9 0 14 7 12 17 -5 25 -28 28 -28 4z"/>
<path d="M2740 1035 c0 -8 7 -15 15 -15 8 0 15 7 15 15 0 8 -7 15 -15 15 -8 0
-15 -7 -15 -15z"/>
<path d="M1713 1028 c2 -7 9 -13 15 -13 5 0 14 -3 18 -7 14 -15 34 -8 34 12 0
16 -7 20 -36 20 -24 0 -34 -4 -31 -12z"/>
<path d="M1972 1013 c5 -25 28 -28 28 -4 0 12 -6 21 -16 21 -9 0 -14 -7 -12
-17z"/>
<path d="M2020 1010 c0 -17 7 -20 45 -20 38 0 45 3 45 20 0 17 -7 20 -45 20
-38 0 -45 -3 -45 -20z"/>
<path d="M3761 1014 c0 -11 3 -14 6 -6 3 7 2 16 -1 19 -3 4 -6 -2 -5 -13z"/>
<path d="M3838 1006 c-3 -14 0 -27 7 -29 7 -3 10 5 7 24 -5 35 -8 36 -14 5z"/>
<path d="M3921 1015 c0 -12 -6 -26 -13 -33 -9 -9 -9 -12 0 -12 16 0 25 23 19
47 -4 16 -5 15 -6 -2z"/>
<path d="M3940 999 c0 -12 5 -19 12 -17 18 6 20 25 3 31 -10 5 -15 0 -15 -14z"/>
<path d="M3985 1010 c-3 -5 1 -18 10 -27 19 -18 50 -7 50 18 0 17 -50 25 -60
9z"/>
<path d="M950 980 c0 -17 7 -20 45 -20 38 0 45 3 45 20 0 17 -7 20 -45 20 -38
0 -45 -3 -45 -20z"/>
<path d="M1060 978 c0 -16 7 -19 43 -16 23 2 42 8 42 13 0 6 -19 13 -42 16
-37 5 -43 3 -43 -13z"/>
<path d="M2747 993 c-4 -3 -7 -12 -7 -20 0 -9 16 -13 55 -13 48 0 55 2 55 20
0 17 -7 20 -48 20 -27 0 -52 -3 -55 -7z"/>
<path d="M3177 980 c-3 -11 -1 -20 4 -20 5 0 9 9 9 20 0 11 -2 20 -4 20 -2 0
-6 -9 -9 -20z"/>
<path d="M3210 980 c0 -11 7 -20 15 -20 8 0 15 9 15 20 0 11 -7 20 -15 20 -8
0 -15 -9 -15 -20z"/>
<path d="M3260 980 c0 -17 7 -20 40 -20 33 0 40 3 40 20 0 17 -7 20 -40 20
-33 0 -40 -3 -40 -20z"/>
<path d="M3360 979 c0 -24 23 -21 28 4 2 10 -3 17 -12 17 -10 0 -16 -9 -16
-21z"/>
<path d="M3580 985 c0 -10 10 -15 33 -15 23 0 34 5 34 15 0 10 -11 15 -34 15
-23 0 -33 -5 -33 -15z"/>
<path d="M1162 973 c2 -13 14 -18 38 -19 43 -2 51 2 43 21 -3 10 -19 15 -45
15 -32 0 -39 -3 -36 -17z"/>
<path d="M1754 977 c-10 -26 5 -37 47 -37 32 0 39 3 39 20 0 14 -7 20 -24 20
-13 0 -31 3 -40 6 -9 4 -18 0 -22 -9z"/>
<path d="M2630 975 c0 -11 12 -15 45 -15 33 0 45 4 45 15 0 11 -12 15 -45 15
-33 0 -45 -4 -45 -15z"/>
<path d="M1857 960 c4 -16 14 -20 43 -20 33 0 50 12 50 36 0 2 -22 4 -49 4
-44 0 -49 -2 -44 -20z"/>
<path d="M1960 960 c0 -17 7 -20 45 -20 38 0 45 3 45 20 0 17 -7 20 -45 20
-38 0 -45 -3 -45 -20z"/>
<path d="M2072 953 c2 -14 13 -18 42 -18 30 0 40 4 42 18 2 14 -6 17 -43 17
-37 0 -44 -3 -41 -17z"/>
<path d="M2170 950 c0 -17 7 -20 45 -20 38 0 45 3 45 20 0 17 -7 20 -45 20
-38 0 -45 -3 -45 -20z"/>
<path d="M3108 963 c7 -3 16 -2 19 1 4 3 -2 6 -13 5 -11 0 -14 -3 -6 -6z"/>
<path d="M3727 952 c-32 -6 -5 -28 38 -31 36 -1 43 1 41 15 -3 17 -38 24 -79
16z"/>
<path d="M3827 954 c-15 -16 8 -34 44 -34 32 0 39 3 39 20 0 17 -7 20 -38 20
-21 0 -41 -3 -45 -6z"/>
<path d="M3932 943 c2 -13 16 -20 48 -24 25 -3 38 -7 29 -7 -9 -1 -19 -13 -21
-27 -5 -23 -2 -25 33 -25 42 0 51 16 24 43 -10 11 -11 17 -3 19 24 8 -4 29
-33 24 -16 -2 -31 0 -35 5 -3 5 -14 9 -25 9 -14 0 -19 -6 -17 -17z"/>
<path d="M3528 943 c-10 -2 -18 -11 -18 -19 0 -10 13 -14 45 -14 38 0 45 3 45
20 0 15 -6 20 -27 19 -16 -1 -36 -3 -45 -6z"/>
<path d="M3628 943 c7 -3 16 -2 19 1 4 3 -2 6 -13 5 -11 0 -14 -3 -6 -6z"/>
<path d="M2988 916 c-4 -22 -3 -23 41 -18 54 6 55 6 48 27 -4 10 -19 15 -46
15 -33 0 -39 -4 -43 -24z"/>
<path d="M3092 923 c2 -13 15 -19 46 -21 37 -3 42 -1 42 17 0 18 -6 21 -46 21
-38 0 -45 -3 -42 -17z"/>
<path d="M3202 924 c2 -8 6 -15 11 -15 4 1 23 1 42 1 24 0 35 5 35 15 0 11
-12 15 -46 15 -36 0 -45 -3 -42 -16z"/>
<path d="M3306 925 c-4 -12 4 -15 39 -15 31 0 45 4 45 13 0 20 -76 21 -84 2z"/>
<path d="M3410 925 c0 -11 12 -15 45 -15 33 0 45 4 45 15 0 11 -12 15 -45 15
-33 0 -45 -4 -45 -15z"/>
<path d="M865 831 c-3 -2 -5 -13 -5 -23 0 -16 10 -18 100 -18 81 0 100 3 100
15 0 30 -73 46 -92 20 -5 -6 -11 -5 -16 3 -8 12 -76 14 -87 3z"/>
<path d="M836 822 c-2 -4 -1 -14 5 -22 7 -12 9 -10 9 8 0 23 -5 28 -14 14z"/>
<path d="M4040 822 c0 -4 18 -6 40 -4 22 2 40 6 40 8 0 2 -18 4 -40 4 -22 0
-40 -3 -40 -8z"/>
<path d="M3968 813 c12 -2 30 -2 40 0 9 3 -1 5 -23 4 -22 0 -30 -2 -17 -4z"/>
<path d="M3778 803 c7 -3 16 -2 19 1 4 3 -2 6 -13 5 -11 0 -14 -3 -6 -6z"/>
<path d="M4040 785 c0 -11 11 -15 40 -15 29 0 40 4 40 15 0 11 -11 15 -40 15
-29 0 -40 -4 -40 -15z"/>
<path d="M4140 785 c0 -8 5 -15 10 -15 6 0 10 7 10 15 0 8 -4 15 -10 15 -5 0
-10 -7 -10 -15z"/>
<path d="M3835 781 c-14 -14 0 -21 40 -21 34 0 45 4 45 15 0 12 -10 15 -40 13
-22 -1 -43 -4 -45 -7z"/>
<path d="M3930 775 c0 -11 12 -15 45 -15 33 0 45 4 45 15 0 11 -12 15 -45 15
-33 0 -45 -4 -45 -15z"/>
<path d="M3980 740 c0 -5 6 -10 13 -10 8 0 7 -4 -3 -10 -11 -7 -2 -10 33 -10
41 0 48 3 45 17 -2 13 -15 19 -46 21 -24 1 -42 -2 -42 -8z"/>
<path d="M4080 743 c1 -20 18 -30 47 -29 24 1 33 6 33 19 0 13 -9 17 -40 17
-22 0 -40 -3 -40 -7z"/>
<path d="M3779 737 c0 -1 -2 -10 -4 -19 -4 -22 14 -23 44 -2 22 16 23 16 12
-4 -17 -32 -13 -33 14 -6 28 28 45 24 45 -11 0 -26 -27 -40 -58 -31 -14 5 -18
0 -20 -25 -2 -19 2 -28 8 -24 5 3 10 13 10 21 0 9 11 14 30 14 24 0 30 -4 31
-22 1 -21 2 -21 6 -3 6 25 21 35 51 35 20 0 22 -4 22 -60 0 -60 0 -60 -29 -60
-20 0 -31 6 -34 18 -4 16 -5 16 -6 0 -1 -14 -10 -18 -35 -18 -28 0 -35 4 -39
23 -4 19 -4 18 -6 -5 l-1 -28 80 0 80 0 0 68 c0 74 -8 112 -22 112 -5 0 -4 -9
2 -20 10 -18 8 -20 -25 -20 -32 0 -35 2 -35 29 0 20 6 31 18 34 9 2 -18 4 -60
5 -43 0 -78 -1 -79 -1z"/>
<path d="M4152 680 c0 -14 2 -19 5 -12 2 6 2 18 0 25 -3 6 -5 1 -5 -13z"/>
<path d="M3987 670 c7 -25 35 -23 39 3 1 12 -5 17 -21 17 -18 0 -22 -4 -18
-20z"/>
<path d="M4042 673 c3 -17 9 -18 71 -14 9 0 17 8 17 16 0 11 -12 15 -46 15
-38 0 -45 -3 -42 -17z"/>
<path d="M4008 632 c-10 -2 -18 -10 -18 -18 0 -10 12 -14 40 -14 33 0 40 3 40
20 0 20 -13 22 -62 12z"/>
<path d="M4090 620 c0 -16 7 -20 35 -20 28 0 35 4 35 20 0 16 -7 20 -35 20
-28 0 -35 -4 -35 -20z"/>
<path d="M3732 603 c5 -25 28 -28 28 -4 0 12 -6 21 -16 21 -9 0 -14 -7 -12
-17z"/>
<path d="M3780 606 c0 -8 5 -18 10 -21 6 -3 10 3 10 14 0 12 -4 21 -10 21 -5
0 -10 -6 -10 -14z"/>
<path d="M3995 571 c-8 -15 3 -31 21 -31 9 0 14 7 12 17 -4 20 -24 28 -33 14z"/>
<path d="M4050 559 c0 -17 5 -20 37 -17 27 2 39 8 41 21 3 14 -4 17 -37 17
-35 0 -41 -3 -41 -21z"/>
<path d="M4151 564 c0 -11 3 -14 6 -6 3 7 2 16 -1 19 -3 4 -6 -2 -5 -13z"/>
<path d="M910 530 c0 -17 7 -20 45 -20 38 0 45 3 45 20 0 17 -7 20 -45 20 -38
0 -45 -3 -45 -20z"/>
<path d="M1012 533 c2 -14 15 -19 51 -21 42 -3 47 -1 47 17 0 18 -6 21 -51 21
-43 0 -50 -3 -47 -17z"/>
<path d="M1120 530 c0 -17 7 -20 45 -20 38 0 45 3 45 20 0 17 -7 20 -45 20
-38 0 -45 -3 -45 -20z"/>
<path d="M1220 530 c0 -17 7 -20 51 -20 43 0 50 3 45 16 -3 9 -6 18 -6 20 0 2
-20 4 -45 4 -38 0 -45 -3 -45 -20z"/>
<path d="M1330 530 c0 -16 7 -20 35 -20 19 0 38 -1 43 -2 4 -2 8 7 10 20 3 20
-1 22 -42 22 -39 0 -46 -3 -46 -20z"/>
<path d="M4128 523 c-39 -6 -37 -33 2 -33 23 0 30 4 30 20 0 11 -1 19 -2 19
-2 -1 -15 -4 -30 -6z"/>
<path d="M3928 513 c-54 -6 -52 -33 2 -33 33 0 40 3 40 20 0 11 -1 19 -2 18
-2 -1 -20 -3 -40 -5z"/>
<path d="M3990 499 c0 -18 5 -20 42 -17 31 2 44 8 46 21 3 14 -4 17 -42 17
-40 0 -46 -3 -46 -21z"/>
<path d="M3782 493 c3 -14 13 -18 43 -18 30 0 41 4 43 18 3 14 -4 17 -43 17
-39 0 -46 -3 -43 -17z"/>
<path d="M1137 313 c-4 -3 -6 -22 -6 -42 1 -20 3 -28 6 -18 2 9 8 17 13 17 5
0 6 7 3 17 -4 11 -3 14 5 9 7 -4 12 -1 12 8 0 16 -21 22 -33 9z"/>
</g>
</svg>
